<?xml version="1.0" encoding="UTF-8"?>
<svg xmlns="http://www.w3.org/2000/svg" xmlns:xlink="http://www.w3.org/1999/xlink" width="20pt" height="20pt" viewBox="0 0 20 20" version="1.1">
<g id="surface1">
<path style=" stroke:none;fill-rule:nonzero;fill:rgb(0%,0%,0%);fill-opacity:1;" d="M 15.492188 20 C 15.578125 20 19.460938 20 19.375 20 C 19.71875 20 20 19.71875 20 19.375 C 19.707031 12.828125 21.535156 5.917969 14.71875 5.917969 C 13.40625 5.917969 12.363281 6.363281 11.609375 6.957031 C 11.609375 5.738281 10.296875 6.414062 7.257812 6.230469 C 6.914062 6.230469 6.632812 6.511719 6.632812 6.855469 C 6.882812 18.660156 6.070312 20 7.257812 20 L 11.140625 20 C 12.269531 20 11.550781 18.410156 11.765625 13.175781 C 11.765625 11.015625 12.390625 10.589844 13.472656 10.589844 C 14.664062 10.589844 14.867188 11.421875 14.867188 13.28125 C 15.082031 18.421875 14.367188 20 15.492188 20 Z M 13.472656 9.339844 C 9.726562 9.339844 10.515625 13.457031 10.515625 18.75 L 7.882812 18.75 L 7.882812 7.480469 L 10.359375 7.480469 L 10.359375 8.5625 C 10.359375 9.164062 11.273438 9.457031 11.59375 8.855469 C 12.003906 8.078125 13.066406 7.167969 14.71875 7.167969 C 17.65625 7.167969 18.75 8.613281 18.75 12.496094 L 18.75 18.75 L 16.117188 18.75 C 16.117188 12.796875 16.746094 9.339844 13.472656 9.339844 Z M 13.472656 9.339844 "/>
<path style=" stroke:none;fill-rule:nonzero;fill:rgb(0%,0%,0%);fill-opacity:1;" d="M 0.933594 6.234375 C -0.25 6.234375 0.5625 7.554688 0.308594 19.375 C 0.308594 19.71875 0.589844 20 0.933594 20 L 4.824219 20 C 6.003906 20 5.195312 18.679688 5.449219 6.859375 C 5.449219 5.777344 3.878906 6.414062 0.933594 6.234375 Z M 4.199219 18.75 L 1.558594 18.75 L 1.558594 7.484375 L 4.199219 7.484375 Z M 4.199219 18.75 "/>
<path style=" stroke:none;fill-rule:nonzero;fill:rgb(0%,0%,0%);fill-opacity:1;" d="M 2.875 0 C -0.9375 0 -0.914062 5.773438 2.875 5.773438 C 6.664062 5.773438 6.695312 0 2.875 0 Z M 2.875 4.523438 C 0.738281 4.523438 0.714844 1.25 2.875 1.25 C 5.039062 1.25 5.011719 4.523438 2.875 4.523438 Z M 2.875 4.523438 "/>
</g>
</svg>
